<?xml version="1.0" encoding="UTF-8"?>
<svg xmlns="http://www.w3.org/2000/svg" xmlns:xlink="http://www.w3.org/1999/xlink" width="256px" height="256px" viewBox="0 0 256 256" version="1.1">
<g id="surface1">
<path style=" stroke:none;fill-rule:nonzero;fill:rgb(7.843138%,26.274511%,47.450981%);fill-opacity:1;" d="M 17.089844 255.027344 C 10.429688 252.976562 4.5 248.027344 1.558594 242.066406 C 0.3125 239.542969 -0.0078125 237.550781 0 232.285156 C 0.0117188 223.734375 1.710938 219.917969 7.90625 214.542969 C 12.921875 210.195312 19.714844 207.714844 25.804688 208.007812 C 27.738281 208.101562 29.515625 207.996094 29.753906 207.773438 C 29.992188 207.550781 36.664062 193.808594 44.578125 177.234375 L 58.972656 147.105469 L 55.632812 144.066406 C 50.496094 139.386719 48.339844 134.375 48.355469 127.144531 C 48.367188 122.066406 48.671875 120.636719 50.503906 117.089844 C 53.097656 112.066406 57.5 107.804688 62.453125 105.523438 C 65.601562 104.070312 67.21875 103.816406 73.316406 103.816406 L 80.480469 103.816406 L 88.660156 87.105469 C 93.15625 77.914062 99.910156 64.089844 103.667969 56.382812 L 110.5 42.367188 L 107.535156 38.699219 C 97.457031 26.226562 102.339844 8.550781 117.6875 1.964844 C 123.847656 -0.679688 132.054688 -0.652344 138.257812 2.039062 C 143.679688 4.386719 148.507812 8.628906 151.082031 13.300781 C 155.097656 20.59375 153.960938 31.824219 148.523438 38.492188 C 147.171875 40.152344 146.066406 41.777344 146.066406 42.101562 C 146.066406 42.421875 147.851562 46.257812 150.039062 50.625 C 154.996094 60.527344 155.503906 61.574219 165.519531 82.5 C 176.941406 106.363281 174.871094 103.8125 182.863281 103.835938 C 188.300781 103.847656 190.195312 104.148438 193 105.441406 C 198.546875 108 202.28125 111.46875 204.945312 116.539062 C 207.140625 120.714844 207.390625 121.808594 207.378906 127.128906 C 207.359375 134.199219 205.375 138.972656 200.4375 143.832031 C 198.746094 145.5 197.359375 147 197.359375 147.164062 C 197.359375 147.449219 212.59375 179.578125 221.707031 198.511719 L 226.066406 207.566406 L 231.671875 207.941406 C 246.140625 208.910156 256.273438 218.796875 256.273438 231.933594 C 256.273438 238.949219 253.996094 244.101562 248.710938 249.050781 C 243.011719 254.390625 237.890625 256.203125 229.695312 255.796875 C 219.738281 255.300781 212.53125 250.921875 208.351562 242.832031 C 206.269531 238.800781 205.957031 237.464844 205.933594 232.515625 L 205.90625 226.832031 L 178.03125 214.28125 C 162.699219 207.378906 149.566406 201.523438 148.847656 201.265625 C 147.941406 200.941406 146.613281 201.585938 144.511719 203.359375 C 139.542969 207.566406 135.574219 208.890625 127.851562 208.921875 C 120.113281 208.953125 116.296875 207.679688 111.1875 203.359375 L 108.089844 200.734375 L 93.066406 207.5 C 84.804688 211.21875 71.757812 217.144531 64.070312 220.664062 L 50.097656 227.0625 L 49.894531 232.644531 C 49.550781 242.191406 45.214844 248.910156 36.628906 253.195312 C 32.640625 255.1875 31.085938 255.558594 26.007812 255.738281 C 22.480469 255.859375 18.851562 255.574219 17.089844 255.03125 Z M 75.230469 205.546875 C 98.632812 194.875 103.273438 192.523438 103.042969 191.449219 C 102.890625 190.738281 102.722656 187.496094 102.671875 184.238281 C 102.589844 179.054688 102.835938 177.824219 104.671875 174.328125 C 106.585938 170.671875 106.671875 170.207031 105.648438 168.839844 C 104.578125 167.40625 87.339844 148.726562 87.089844 148.730469 C 87.019531 148.730469 85.136719 149.378906 82.902344 150.175781 C 79.789062 151.285156 77.527344 151.574219 73.261719 151.40625 L 67.6875 151.1875 L 60.753906 165.800781 C 56.9375 173.835938 50.488281 187.210938 46.417969 195.523438 C 42.347656 203.835938 39.019531 210.820312 39.019531 211.046875 C 39.019531 211.628906 45.976562 218.3125 46.609375 218.335938 C 46.898438 218.347656 59.777344 212.59375 75.230469 205.546875 Z M 213.125 214.859375 C 215.082031 212.9375 216.6875 211.089844 216.6875 210.753906 C 216.6875 210.234375 210.246094 196.652344 192.0625 158.8125 L 188.375 151.140625 L 183.015625 151.394531 C 178.933594 151.585938 176.597656 151.296875 173.199219 150.171875 L 168.738281 148.695312 L 167.445312 150.171875 C 166.730469 150.988281 162.382812 155.71875 157.78125 160.691406 C 153.175781 165.664062 149.46875 170.097656 149.542969 170.542969 C 149.613281 170.992188 150.566406 173.363281 151.660156 175.816406 C 153.378906 179.671875 153.597656 180.945312 153.269531 185.214844 C 153.058594 187.933594 152.773438 190.730469 152.636719 191.429688 C 152.429688 192.480469 157.367188 194.96875 180.621094 205.53125 C 196.148438 212.585938 209.015625 218.359375 209.210938 218.359375 C 209.402344 218.359375 211.164062 216.785156 213.125 214.859375 Z M 150.441406 154.703125 C 153.960938 150.902344 157.929688 146.625 159.257812 145.195312 L 161.671875 142.59375 L 159.8125 139.570312 C 158.789062 137.90625 157.605469 135.363281 157.183594 133.925781 L 156.410156 131.304688 L 127.664062 131.488281 L 98.921875 131.667969 L 98.457031 133.757812 C 98.203125 134.90625 97.273438 137.371094 96.386719 139.230469 L 94.78125 142.617188 L 98.132812 146.195312 C 99.972656 148.164062 104.238281 152.808594 107.605469 156.519531 C 110.972656 160.230469 114.09375 163.285156 114.542969 163.308594 C 114.992188 163.332031 116.496094 162.800781 117.886719 162.132812 C 121.839844 160.230469 134.28125 160.402344 138.257812 162.417969 C 141.84375 164.234375 141.265625 164.601562 150.441406 154.703125 Z M 157.910156 119.359375 C 159.085938 115.683594 160.464844 113.589844 164.050781 110.042969 L 166.90625 107.21875 L 162.160156 97.511719 C 159.550781 92.171875 152.972656 78.617188 147.539062 67.394531 L 137.660156 46.984375 L 134.613281 47.542969 C 130.734375 48.253906 125.71875 48.253906 121.847656 47.542969 L 118.8125 46.988281 L 112.835938 59.386719 C 109.546875 66.207031 102.921875 79.851562 98.105469 89.707031 L 89.355469 107.625 L 92.4375 110.757812 C 95.183594 113.546875 97.628906 117.507812 98.785156 121.050781 C 99.15625 122.183594 101.210938 122.269531 128.082031 122.269531 L 156.980469 122.269531 Z M 157.910156 119.359375 "/>
</g>
</svg>
