<?xml version="1.0" encoding="UTF-8" standalone="no"?>
<!-- Created with Inkscape (http://www.inkscape.org/) -->

<svg
   width="82.213959mm"
   height="82.925133mm"
   viewBox="0 0 82.213959 82.925133"
   version="1.1"
   id="svg1"
   xml:space="preserve"
   inkscape:version="1.4.3 (0d15f75, 2025-12-25)"
   sodipodi:docname="logo.svg"
   inkscape:export-filename="icone_1024.png"
   inkscape:export-xdpi="313.65161"
   inkscape:export-ydpi="313.65161"
   xmlns:inkscape="http://www.inkscape.org/namespaces/inkscape"
   xmlns:sodipodi="http://sodipodi.sourceforge.net/DTD/sodipodi-0.dtd"
   xmlns="http://www.w3.org/2000/svg"
   xmlns:svg="http://www.w3.org/2000/svg"><sodipodi:namedview
     id="namedview1"
     pagecolor="#ffffff"
     bordercolor="#000000"
     borderopacity="0.25"
     inkscape:showpageshadow="2"
     inkscape:pageopacity="0.0"
     inkscape:pagecheckerboard="0"
     inkscape:deskcolor="#d1d1d1"
     inkscape:document-units="mm"
     showgrid="false"
     inkscape:zoom="1.0734778"
     inkscape:cx="226.36705"
     inkscape:cy="174.66593"
     inkscape:window-width="1280"
     inkscape:window-height="1382"
     inkscape:window-x="1280"
     inkscape:window-y="30"
     inkscape:window-maximized="0"
     inkscape:current-layer="layer1" /><defs
     id="defs1" /><g
     inkscape:label="Calque 1"
     inkscape:groupmode="layer"
     id="layer1"
     transform="translate(-5.4239923,-102.1664)"><path
       style="fill:#144379;stroke-width:0.876818;fill-opacity:1"
       d="m 10.906234,184.8251 c -2.1360953,-0.66506 -4.0382323,-2.26886 -4.9827263,-4.20124 -0.39975,-0.81786 -0.501473,-1.46364 -0.499487,-3.17097 0.0032,-2.77065 0.549316,-4.00849 2.536508,-5.74952 1.608398,-1.40915 3.7886223,-2.21343 5.7422923,-2.11834 0.619971,0.0302 1.189682,-0.004 1.266026,-0.0765 0.07634,-0.0722 2.216721,-4.52603 4.756396,-9.8973 l 4.617589,-9.76596 -1.070807,-0.98484 c -1.648748,-1.51638 -2.340208,-3.14065 -2.335002,-5.48503 0.0037,-1.64598 0.101475,-2.10847 0.689162,-3.25829 0.832239,-1.62829 2.244443,-3.00954 3.833612,-3.74956 1.009713,-0.4702 1.528145,-0.55238 3.484726,-0.55238 h 2.298541 l 2.623575,-5.41629 c 1.442966,-2.97895 3.609659,-7.46025 4.814871,-9.95843 l 2.191298,-4.54216 -0.950632,-1.18857 c -3.233628,-4.04301 -1.66693,-9.77146 3.256469,-11.90689 1.976436,-0.85724 4.609386,-0.84772 6.599997,0.0239 1.738237,0.76108 3.287946,2.13634 4.113299,3.65026 1.289127,2.36462 0.923533,6.00389 -0.820318,8.16582 -0.433911,0.53794 -0.78893,1.06389 -0.78893,1.16879 0,0.1049 0.573558,1.34808 1.274573,2.76261 1.590678,3.20975 1.753878,3.54921 4.967022,10.3317 3.663822,7.73381 2.999619,6.90824 5.563216,6.91482 1.744962,0.004 2.353084,0.10183 3.251957,0.52055 1.779881,0.82912 2.977515,1.95316 3.832838,3.5973 0.703768,1.35282 0.784544,1.70828 0.779916,3.43212 -0.0061,2.29105 -0.642553,3.83885 -2.226111,5.41415 -0.543521,0.54068 -0.98822,1.02645 -0.98822,1.07948 0,0.0924 4.887738,10.50594 7.811684,16.64318 l 1.397752,2.93383 1.799189,0.12193 c 4.640711,0.31451 7.891443,3.51802 7.891443,7.77681 0,2.27286 -0.730181,3.94259 -2.425799,5.54719 -1.828503,1.73034 -3.470677,2.31887 -6.100344,2.18629 -3.194633,-0.16107 -5.506446,-1.57976 -6.847134,-4.20185 -0.667959,-1.30639 -0.768319,-1.73891 -0.775738,-3.34325 l -0.0086,-1.84273 -8.94304,-4.06732 c -4.918671,-2.23703 -9.131624,-4.13555 -9.362117,-4.21895 -0.290456,-0.10509 -0.7172,0.10325 -1.390423,0.67881 -1.594524,1.36323 -2.868006,1.79285 -5.344929,1.80318 -2.48268,0.0103 -3.706809,-0.40268 -5.345479,-1.80365 l -0.994439,-0.85018 -4.819156,2.19231 c -2.650535,1.20576 -6.836619,3.12563 -9.302409,4.26635 l -4.483255,2.07405 -0.06446,1.80902 c -0.110288,3.09496 -1.501183,5.27205 -4.255947,6.66162 -1.27941,0.64537 -1.778284,0.76598 -3.406753,0.82362 -1.131785,0.0401 -2.29588,-0.0533 -2.861773,-0.22946 z m 18.651663,-16.03775 c 7.507885,-3.45897 8.997303,-4.22176 8.92327,-4.57 -0.04888,-0.2299 -0.102535,-1.28123 -0.119241,-2.33627 -0.02661,-1.6804 0.05293,-2.0788 0.641337,-3.21273 0.614599,-1.1844 0.641262,-1.3356 0.313589,-1.7783 -0.343702,-0.46436 -5.874104,-6.51871 -5.954364,-6.51848 -0.02147,6e-5 -0.625941,0.21121 -1.343267,0.46922 -0.998344,0.35907 -1.723569,0.45253 -3.092193,0.39847 l -1.787961,-0.0706 -2.224898,4.73559 c -1.223693,2.60458 -3.293163,6.94001 -4.598821,9.63432 -1.305658,2.6943 -2.373924,4.95823 -2.373924,5.03096 0,0.18917 2.231795,2.35513 2.434953,2.36313 0.09316,0.003 4.224846,-1.86172 9.18152,-4.14531 z m 44.237822,3.01827 c 0.62847,-0.62354 1.142672,-1.22237 1.142672,-1.33073 0,-0.16816 -2.065809,-4.57066 -7.899569,-16.835 l -1.182691,-2.48637 -1.718997,0.0821 c -1.310307,0.0626 -2.059189,-0.0317 -3.149883,-0.39644 l -1.430887,-0.47857 -0.41514,0.47918 c -0.228328,0.26356 -1.623441,1.7977 -3.100254,3.40921 -1.476811,1.6115 -2.666219,3.04858 -2.643127,3.19349 0.02309,0.14491 0.329111,0.91374 0.680045,1.70851 0.551593,1.24921 0.62149,1.66208 0.515778,3.04666 -0.06726,0.8809 -0.158642,1.78738 -0.203083,2.01441 -0.06655,0.33995 1.517368,1.14622 8.977669,4.56999 4.982158,2.28647 9.109393,4.15722 9.171633,4.15722 0.06224,0 0.627365,-0.51017 1.255834,-1.13371 z M 53.686407,152.30788 c 1.129844,-1.23125 2.402635,-2.61795 2.828425,-3.08155 l 0.774165,-0.8429 -0.596106,-0.98067 c -0.327857,-0.53937 -0.707536,-1.3627 -0.843728,-1.82961 l -0.247623,-0.84894 -9.221472,0.059 -9.221471,0.059 -0.148499,0.67704 c -0.08167,0.37237 -0.380461,1.17082 -0.663971,1.77433 l -0.515472,1.09729 1.074592,1.15949 c 0.591026,0.63773 1.958602,2.14357 3.039057,3.34632 1.080455,1.20275 2.082122,2.19292 2.225925,2.20037 0.143804,0.008 0.626728,-0.16417 1.073165,-0.38139 1.267536,-0.61673 5.258625,-0.55998 6.535248,0.0929 1.149925,0.58811 0.964149,0.70699 3.907765,-2.50082 z m 2.396504,-11.45503 c 0.377411,-1.19206 0.819531,-1.86971 1.969916,-3.01932 l 0.916092,-0.91548 -1.522444,-3.14673 c -0.837345,-1.73071 -2.948356,-6.12355 -4.691137,-9.76186 l -3.168691,-6.61512 -0.977167,0.18095 c -1.245103,0.23056 -2.854223,0.23083 -4.096224,7.1e-4 l -0.972728,-0.18024 -1.917751,4.0191 c -1.054764,2.21052 -3.181148,6.63244 -4.725298,9.82651 l -2.807547,5.8074 0.989105,1.01545 c 0.881097,0.90456 1.66445,2.188 2.03646,3.33652 0.118963,0.36728 0.777093,0.39493 9.398418,0.39493 h 9.270496 z"
       id="path1"
       sodipodi:nodetypes="csssscscscssscsscsscssssscsscssscsssssccssscscsscsscccsssssssscssscscsscsccsssssssscccscsscccsscsscssccsscsscsscsscssscs"
       inkscape:label="path1" /></g></svg>
